HIERARCHY
ROOT Hips
{
	OFFSET 222.100906 91.845993 97.126823
	CHANNELS 6 Xposition Yposition Zposition Zrotation Yrotation Xrotation 
	JOINT LeftUpLeg
	{
		OFFSET 0.103458 1.857826 10.548496
		CHANNELS 3 Zrotation Yrotation Xrotation
		JOINT LeftLeg
		{
			OFFSET 43.500000 -0.000027 -0.000004
			CHANNELS 3 Zrotation Yrotation Xrotation
			JOINT LeftFoot
			{
				OFFSET 42.372200 0.000015 -0.000005
				CHANNELS 3 Zrotation Yrotation Xrotation
				JOINT LeftToe
				{
					OFFSET 17.299997 -0.000002 0.000005
					CHANNELS 3 Zrotation Yrotation Xrotation
					End Site
					{
						OFFSET 0.000000 0.000000 0.000000
					}
				}
			}
		}
	}
	JOINT RightUpLeg
	{
		OFFSET 0.103458 1.857826 -10.548510
		CHANNELS 3 Zrotation Yrotation Xrotation
		JOINT RightLeg
		{
			OFFSET 43.500046 -0.000015 0.000000
			CHANNELS 3 Zrotation Yrotation Xrotation
			JOINT RightFoot
			{
				OFFSET 42.372261 -0.000011 0.000021
				CHANNELS 3 Zrotation Yrotation Xrotation
				JOINT RightToe
				{
					OFFSET 17.299997 -0.000004 0.000000
					CHANNELS 3 Zrotation Yrotation Xrotation
					End Site
					{
						OFFSET 0.000000 0.000000 0.000000
					}
				}
			}
		}
	}
	JOINT Spine
	{
		OFFSET 6.901967 -2.603728 0.000002
		CHANNELS 3 Zrotation Yrotation Xrotation
		JOINT Spine1
		{
			OFFSET 12.588098 -0.000006 -0.000001
			CHANNELS 3 Zrotation Yrotation Xrotation
			JOINT Spine2
			{
				OFFSET 12.343200 0.000006 -0.000002
				CHANNELS 3 Zrotation Yrotation Xrotation
				JOINT Neck
				{
					OFFSET 25.832905 -0.000006 -0.000005
					CHANNELS 3 Zrotation Yrotation Xrotation
					JOINT Head
					{
						OFFSET 11.766604 0.000006 0.000006
						CHANNELS 3 Zrotation Yrotation Xrotation
						End Site
						{
							OFFSET 0.000000 0.000000 0.000000
						}
					}
				}
				JOINT LeftShoulder
				{
					OFFSET 19.745914 -1.480366 6.000100
					CHANNELS 3 Zrotation Yrotation Xrotation
					JOINT LeftArm
					{
						OFFSET 11.284136 -0.000006 -0.000022
						CHANNELS 3 Zrotation Yrotation Xrotation
						JOINT LeftForeArm
						{
							OFFSET 33.000057 0.000006 0.000029
							CHANNELS 3 Zrotation Yrotation Xrotation
							JOINT LeftHand
							{
								OFFSET 25.199999 0.000011 -0.000002
								CHANNELS 3 Zrotation Yrotation Xrotation
								End Site
								{
									OFFSET 0.000000 0.000000 0.000000
								}
							}
						}
					}
				}
				JOINT RightShoulder
				{
					OFFSET 19.746107 -1.480371 -6.000078
					CHANNELS 3 Zrotation Yrotation Xrotation
					JOINT RightArm
					{
						OFFSET 11.284137 -0.000012 0.000000
						CHANNELS 3 Zrotation Yrotation Xrotation
						JOINT RightForeArm
						{
							OFFSET 33.000088 0.000017 0.000001
							CHANNELS 3 Zrotation Yrotation Xrotation
							JOINT RightHand
							{
								OFFSET 25.199789 0.000135 0.000430
								CHANNELS 3 Zrotation Yrotation Xrotation
								End Site
								{
									OFFSET 0.000000 0.000000 0.000000
								}
							}
						}
					}
				}
			}
		}
	}
}
MOTION
Frames: 11
Frame Time: 0.033333
222.100906 91.845993 97.126823 92.564431 8.918243 88.936761 -170.891702 -1.657198 -176.502620 -7.606010 -1.387909 -7.827060 71.831303 3.985911 -5.306379 21.454553 0.003091 -0.000001 -170.877427 7.577497 -176.042143 -12.194011 4.017411 12.883022 78.277253 -7.327400 7.554316 21.454558 -0.003101 -0.000017 7.661461 -0.779651 -0.045000 5.334873 -1.589031 -0.136206 5.016660 -1.589649 -0.114703 6.615151 -6.318184 -8.958047 -18.539975 10.790862 -14.173379 -54.755584 -86.516087 -127.321939 -3.936557 4.798387 -10.419988 -22.927630 -16.175227 1.183068 7.745462 -1.000676 19.329811 -86.269654 81.064838 96.251183 -8.617963 -1.672702 8.694951 -20.125714 16.221090 -1.167942 6.026815 4.503091 -5.011230 
222.097900 91.845284 97.128998 92.564431 8.918243 88.936761 -170.891702 -1.657198 -176.502620 -7.606010 -1.387909 -7.827060 71.831303 3.985911 -5.306379 21.454553 0.003091 -0.000001 -170.877427 7.577502 -176.045913 -12.198716 4.017413 12.883014 78.283865 -7.327399 7.554316 21.454558 -0.003099 -0.000014 7.661461 -0.779651 -0.045000 5.334873 -1.589031 -0.136206 5.016660 -1.589649 -0.114703 6.633536 -6.318190 -8.960670 -18.553586 10.790865 -14.178373 -54.651923 -86.523286 -127.424842 -3.928264 4.801831 -10.418193 -22.929934 -16.175223 1.183084 7.724214 -1.012136 19.292979 -86.282071 81.068116 96.238363 -8.626536 -1.681362 8.700971 -20.115605 16.221090 -1.167937 6.018373 4.518344 -5.038312 
222.090393 91.843437 97.133614 92.564431 8.918243 88.936761 -170.891702 -1.657198 -176.502620 -7.606010 -1.387909 -7.827060 71.837095 3.985917 -5.312845 21.454551 0.003095 0.000000 -170.877413 7.577505 -176.056008 -12.209366 4.022217 12.887286 78.301453 -7.327399 7.554316 21.454558 -0.003108 -0.000017 7.661461 -0.779651 -0.045000 5.334873 -1.589031 -0.136206 5.016660 -1.589649 -0.114703 6.687899 -6.318182 -8.969967 -18.607478 10.793062 -14.192820 -54.368828 -86.543278 -127.705468 -3.903719 4.809641 -10.406278 -22.938499 -16.181657 1.183088 7.674924 -1.033845 19.204247 -86.308169 81.076606 96.211418 -8.647167 -1.700888 8.714627 -20.090890 16.221091 -1.167920 5.995508 4.524324 -5.065592 
222.082397 91.841438 97.138268 92.564431 8.918243 88.936761 -170.886962 -1.657193 -176.498194 -7.606014 -1.387899 -7.827060 71.843154 3.985914 -5.319993 21.454550 0.003090 0.000000 -170.877427 7.577503 -176.067647 -12.218950 4.027767 12.892424 78.320072 -7.332222 7.554316 21.454560 -0.003101 -0.000017 7.661461 -0.779651 -0.045000 5.334873 -1.589031 -0.136206 5.016660 -1.589649 -0.114703 6.716176 -6.318181 -8.976466 -18.628948 10.800377 -14.203654 -54.097188 -86.563106 -127.974878 -3.879689 4.815015 -10.389741 -22.948268 -16.189119 1.183080 7.638242 -1.049187 19.122354 -86.336460 81.085882 96.182171 -8.668094 -1.719663 8.729414 -20.065311 16.214816 -1.167944 5.977361 4.480765 -5.042702 
222.074203 91.839500 97.143707 92.564431 8.918243 88.936761 -170.881265 -1.657189 -176.492156 -7.606018 -1.387902 -7.827054 71.849506 3.985921 -5.327334 21.454553 0.003081 -0.000001 -170.877427 7.577501 -176.080897 -12.226207 4.034175 12.899402 78.336935 -7.338262 7.554315 21.454560 -0.003119 -0.000018 7.661461 -0.779651 -0.045000 5.334873 -1.589031 -0.136206 5.016660 -1.589649 -0.114703 6.720969 -6.318187 -8.977674 -18.630541 10.809640 -14.208378 -53.922274 -86.577149 -128.148310 -3.865680 4.815125 -10.376353 -22.955414 -16.195200 1.183084 7.623639 -1.057550 19.067810 -86.374442 81.095410 96.142986 -8.688568 -1.738190 8.747428 -20.039891 16.193409 -1.167939 5.976862 4.426862 -5.024161 
222.066406 91.837799 97.150459 92.564431 8.918243 88.936761 -170.874790 -1.657198 -176.485586 -7.606013 -1.387906 -7.827059 71.856213 3.985914 -5.334379 21.454551 0.003082 -0.000000 -170.877427 7.577502 -176.093806 -12.232056 4.040700 12.907419 78.349974 -7.344646 7.554310 21.454558 -0.003099 -0.000017 7.661461 -0.779651 -0.045000 5.334873 -1.589031 -0.136206 5.016660 -1.589649 -0.114703 6.704309 -6.318181 -8.972871 -18.617806 10.818278 -14.206052 -53.861601 -86.584416 -128.208197 -3.861730 4.808641 -10.372184 -22.958083 -16.192186 1.183091 7.630108 -1.074467 19.052003 -86.422281 81.104569 96.094089 -8.708075 -1.758603 8.770574 -20.015000 16.147141 -1.167933 6.000119 4.417888 -4.984554 
222.059204 91.836533 97.158043 92.564431 8.918243 88.936761 -170.869108 -1.660996 -176.481993 -7.606020 -1.387899 -7.827052 71.863398 3.985915 -5.340612 21.454551 0.003085 0.000001 -170.877427 7.573391 -176.106046 -12.239784 4.046003 12.915313 78.357269 -7.350193 7.554322 21.454560 -0.003102 -0.000016 7.661461 -0.779651 -0.045000 5.334873 -1.589031 -0.136206 5.016660 -1.589649 -0.114703 6.667724 -6.318179 -8.963691 -18.594746 10.820640 -14.196557 -53.874521 -86.587285 -128.195028 -3.859466 4.798151 -10.372540 -22.954130 -16.183399 1.183085 7.644393 -1.103097 19.059885 -86.473173 81.112301 96.042357 -8.726274 -1.785096 8.803116 -19.993212 16.083622 -1.167932 6.035582 4.463849 -4.953404 
222.053207 91.836380 97.166512 92.564431 8.918243 88.936761 -170.865310 -1.667996 -176.482102 -7.606014 -1.384101 -7.827059 71.871239 3.985906 -5.345587 21.454553 0.003101 0.000001 -170.877427 7.566100 -176.116114 -12.255378 4.048264 12.921589 78.357774 -7.353035 7.558987 21.454558 -0.003114 -0.000019 7.661461 -0.779651 -0.045000 5.334874 -1.583944 -0.136202 5.016664 -1.584569 -0.114710 6.615913 -6.318190 -8.954632 -18.568619 10.810922 -14.182128 -53.918746 -86.589068 -128.150741 -3.858067 4.786747 -10.382711 -22.948208 -16.171079 1.183089 7.650498 -1.127857 19.069069 -86.525205 81.116235 95.989580 -8.744662 -1.818082 8.842837 -19.975858 16.023748 -1.167935 6.066907 4.492363 -4.913624 
222.048492 91.835983 97.175636 92.564431 8.918246 88.940886 -170.862851 -1.671899 -176.483919 -7.606012 -1.380875 -7.822504 71.878145 3.985917 -5.349054 21.454553 0.003086 0.000001 -170.877413 7.560903 -176.123053 -12.266390 4.049365 12.927012 78.355192 -7.354159 7.564806 21.454560 -0.003118 -0.000019 7.661467 -0.779649 -0.045003 5.334869 -1.579277 -0.136203 5.016669 -1.579885 -0.114703 6.566538 -6.318173 -8.942365 -18.557995 10.803454 -14.167020 -53.980713 -86.589068 -128.088723 -3.857675 4.771862 -10.399439 -22.944344 -16.154907 1.183086 7.648697 -1.147058 19.067130 -86.584771 81.107021 95.930635 -8.775296 -1.855105 8.870180 -19.957526 15.994140 -1.167728 6.082602 4.474439 -4.903296 
222.045197 91.835480 97.185783 92.564431 8.918236 88.946999 -170.861389 -1.673307 -176.487143 -7.606342 -1.378461 -7.816479 71.884599 3.981313 -5.350022 21.454551 0.003084 -0.000000 -170.877427 7.557894 -176.124474 -12.273420 4.049608 12.930983 78.352262 -7.354476 7.571862 21.454557 -0.003098 -0.000017 7.661457 -0.779651 -0.044997 5.334863 -1.574159 -0.136204 5.016674 -1.574761 -0.114701 6.525807 -6.322589 -8.926049 -18.555066 10.811844 -14.155114 -54.125902 -86.585051 -127.944114 -3.859346 4.752218 -10.408482 -22.929341 -16.138854 1.183076 7.629542 -1.164626 19.038181 -86.641284 81.089187 95.875393 -8.813135 -1.889661 8.900641 -19.934686 15.992902 -1.167484 6.065507 4.413880 -4.968139 
222.044601 91.834877 97.197128 92.564424 8.918241 88.955113 -170.859914 -1.672390 -176.494561 -7.607065 -1.376849 -7.806963 71.890944 3.975187 -5.348969 21.454555 0.003084 0.000001 -170.877427 7.557699 -176.120007 -12.277563 4.049328 12.932856 78.351716 -7.354338 7.579739 21.454558 -0.003084 -0.000015 7.661447 -0.779662 -0.045014 5.334884 -1.568322 -0.136199 5.016666 -1.568942 -0.114706 6.496607 -6.329744 -8.911616 -18.548275 10.820636 -14.144729 -54.361735 -86.574574 -127.709689 -3.868942 4.735486 -10.421210 -22.911502 -16.134722 1.183074 7.601043 -1.182135 18.982856 -86.683597 81.072604 95.834384 -8.848858 -1.918663 8.929928 -19.909286 16.012591 -1.167239 6.030783 4.339101 -5.051700 
